# Simple dragon head snippet
v 0.0 0.0 0.0     # vertex 1 - snout
v 0.5 0.2 0.0     # vertex 2 - nose ridge
v 0.3 0.5 0.2     # vertex 3 - eye brow
v -0.3 0.5 0.2    # vertex 4 - opposite eyebrow
v -0.5 0.2 0.0    # vertex 5 - opposite nose ridge
v 0.0 0.3 -0.3    # vertex 6 - bottom jaw
v 0.0 0.8 0.0     # vertex 7 - top of head

vn 0.0 0.0 1.0    # normal 1
vn 0.0 1.0 0.0    # normal 2
vn 0.0 -1.0 0.0   # normal 3

f 1//1 2//1 3//1
f 1//1 3//1 4//1
f 1//1 4//1 5//1
f 1//3 5//3 6//3
f 3//2 7//2 4//2
